<svg height="384pt" viewBox="-96 0 384 384.008" width="384pt" xmlns="http://www.w3.org/2000/svg"><path d="m37.074219 116.558594 9.121093-4.558594h96l9.121094 4.558594c5.757813-11.199219 10.71875-23.277344 14.480469-36.558594 2.480469-8.640625 5.039063-17.761719 6.640625-31.121094l-6.242188-.878906h-144l-6.238281.878906c1.597657 13.28125 4.160157 22.480469 6.640625 31.121094 3.757813 13.28125 8.71875 25.359375 14.476563 36.558594zm0 0" fill="#cce4ff"/><path d="m166.195312 336 6.242188-.878906c-1.601562-13.28125-4.160156-22.480469-6.640625-31.121094-3.761719-13.28125-8.722656-25.359375-14.480469-36.558594l-9.121094 4.558594h-96l-9.121093-4.558594c-5.757813 11.199219-10.71875 23.277344-14.476563 36.558594-2.480468 8.640625-5.042968 17.761719-6.640625 31.121094l6.238281.878906zm0 0" fill="#cce4ff"/><path d="m32.003906 368c0-5.976562.175782-11.152344.425782-16h127.148437c.25 4.847656.425781 10.023438.425781 16v16h32v-16c0-34.351562-4.273437-51.976562-9.007812-68.375-5.214844-18.328125-12.59375-35.296875-22.535156-51.832031-12.648438-21.152344-27.722657-38.945313-42.863282-55.792969 15.148438-16.847656 30.214844-34.648438 42.839844-55.753906 9.964844-16.574219 17.34375-33.542969 22.542969-51.804688 4.945312-17.113281 9.023437-34.066406 9.023437-68.441406v-16h-32v16c0 5.976562-.175781 11.152344-.425781 16h-127.148437c-.25-4.847656-.425782-10.023438-.425782-16v-16h-31.99999975v16c0 34.367188 4.08984375 51.328125 9.00781275 68.375 5.214843 18.320312 12.59375 35.289062 22.542969 51.832031 12.640624 21.136719 27.714843 38.9375 42.867187 55.792969-15.152344 16.847656-30.21875 34.648438-42.84375 55.761719-9.964844 16.574219-17.34375 33.542969-22.542969 51.804687-4.941406 17.113282-9.0234372 34.066406-9.0234372 68.441406v16h32.0000002v-16.007812zm7.769532-292.441406c-1.035157-3.574219-2.097657-7.34375-3.097657-11.558594h118.648438c-1.007813 4.238281-2.070313 8.023438-3.113281 11.625-1.992188 7.007812-4.421876 13.75-7.199219 20.375h-98.023438c-2.785156-6.632812-5.214843-13.398438-7.214843-20.441406zm24.558593 52.441406h63.335938c-9.519531 14.382812-20.449219 27.574219-31.671875 40.160156-11.214844-12.574218-22.136719-25.769531-31.664063-40.160156zm31.671875 87.839844c11.214844 12.566406 22.144532 25.761718 31.671875 40.160156h-63.335937c9.511718-14.382812 20.441406-27.574219 31.664062-40.160156zm-56.214844 92.535156c1.992188-7.007812 4.421876-13.75 7.199219-20.375h98.03125c2.777344 6.632812 5.214844 13.398438 7.214844 20.441406 1.035156 3.566406 2.097656 7.335938 3.097656 11.558594h-118.65625c1.007813-4.238281 2.070313-8.023438 3.113281-11.625zm0 0" fill="#007aff"/></svg>